<svg width="24" height="24" viewBox="0 0 24 24" fill="none" xmlns="http://www.w3.org/2000/svg">
<g id="Frame 27">
<g id="Vector">
<path d="M5.70711 10.7071C5.31658 10.3166 5.31658 9.68342 5.70711 9.29289C6.09763 8.90237 6.7308 8.90237 7.12132 9.29289L12.7782 14.9497C13.1687 15.3403 13.1687 15.9734 12.7782 16.364C12.3877 16.7545 11.7545 16.7545 11.364 16.364L5.70711 10.7071Z" fill="black"/>
<path d="M17.0208 9.29289C17.4113 8.90237 18.0445 8.90237 18.435 9.29289C18.8256 9.68342 18.8256 10.3166 18.435 10.7071L12.7782 16.364C12.3877 16.7545 11.7545 16.7545 11.364 16.364C10.9734 15.9734 10.9734 15.3403 11.364 14.9497L17.0208 9.29289Z" fill="black"/>
</g>
</g>
</svg>
