<svg width="24" height="25" viewBox="0 0 24 25" fill="none" xmlns="http://www.w3.org/2000/svg">
<g id="back">
<g id="Vector">
<path d="M15.0727 6.15362C15.2849 5.94879 15.6288 5.94879 15.8409 6.15362C16.053 6.35844 16.053 6.69052 15.8409 6.89534L8.92728 13.5709C8.71515 13.7757 8.37122 13.7757 8.1591 13.5709C7.94697 13.366 7.94697 13.034 8.1591 12.8291L15.0727 6.15362Z" fill="#676767"/>
<path d="M15.8409 19.5047C16.053 19.7095 16.053 20.0416 15.8409 20.2464C15.6288 20.4512 15.2849 20.4512 15.0727 20.2464L8.1591 13.5709C7.94697 13.366 7.94697 13.034 8.1591 12.8291C8.37122 12.6243 8.71515 12.6243 8.92728 12.8291L15.8409 19.5047Z" fill="#676767"/>
</g>
</g>
</svg>
