<svg width="34" height="34" viewBox="0 0 34 34" fill="none" xmlns="http://www.w3.org/2000/svg">
<g id="Frame">
<g id="Group">
<g id="Group_2">
<path id="Vector" d="M17.7397 15.385H15.3579V29.9999H17.7397V15.385Z" fill="#333333"/>
</g>
<g id="Group_3">
<path id="Vector_2" d="M16.5489 15.385C16.5489 15.385 14.8054 5.00028 1.20991 5.19082C1.21943 5.19082 -0.142969 17.2238 16.5489 15.385Z" fill="#87B570"/>
<path id="Vector_3" d="M13.2618 16.7666C8.46957 16.7666 4.87777 15.4613 2.59122 12.8985C-0.428931 9.52583 0.00932478 5.23855 0.0379067 5.05753C0.104598 4.46684 0.600017 4.00953 1.20024 4H1.59086C15.6817 4 17.711 15.0707 17.7301 15.185C17.7873 15.509 17.7015 15.8424 17.511 16.0997C17.3109 16.3569 17.0156 16.5284 16.6916 16.5665C15.4817 16.6999 14.3384 16.7666 13.2618 16.7666ZM2.40068 6.39135C2.48642 7.61085 2.86751 9.65922 4.38235 11.336C6.20207 13.3558 9.19364 14.3848 13.2523 14.3848C13.8334 14.4324 14.4051 14.3657 15.0148 14.3276C14.1193 11.8695 11.1848 6.69623 2.40068 6.39135Z" fill="#333333"/>
</g>
<g id="Group_4">
<path id="Vector_4" d="M16.5491 15.385C16.5491 15.385 18.2926 5.00028 31.888 5.19082C31.888 5.19082 33.2504 17.2238 16.5491 15.385Z" fill="#87B570"/>
<path id="Vector_5" d="M19.8454 16.7666C18.7688 16.7666 17.616 16.6999 16.4156 16.5665C16.0917 16.5284 15.7963 16.3664 15.5962 16.0997C15.3962 15.8424 15.3199 15.509 15.3771 15.185C15.3962 15.0707 17.4255 4 31.5164 4H31.907C32.5072 4.00953 33.0026 4.45731 33.0693 5.05753C33.0884 5.23855 33.5361 9.52583 30.516 12.8985C28.2294 15.4709 24.6376 16.7666 19.8454 16.7666ZM18.1019 14.3276C23.0847 14.661 26.6479 13.6416 28.7249 11.336C30.2397 9.65922 30.6208 7.61085 30.7065 6.39135C21.9891 6.69623 19.0165 11.8791 18.1019 14.3276Z" fill="#333333"/>
</g>
</g>
</g>
</svg>
