<svg width="24" height="25" viewBox="0 0 24 25" fill="none" xmlns="http://www.w3.org/2000/svg">
<g id="next">
<g id="Vector">
<path d="M8.92728 19.8464C8.71515 20.0512 8.37122 20.0512 8.1591 19.8464C7.94697 19.6416 7.94697 19.3095 8.1591 19.1047L15.0727 12.4291C15.2849 12.2243 15.6288 12.2243 15.8409 12.4291C16.053 12.634 16.053 12.966 15.8409 13.1709L8.92728 19.8464Z" fill="#676767"/>
<path d="M8.1591 6.49534C7.94697 6.29052 7.94697 5.95844 8.1591 5.75362C8.37122 5.5488 8.71515 5.5488 8.92728 5.75362L15.8409 12.4291C16.053 12.634 16.053 12.966 15.8409 13.1709C15.6288 13.3757 15.2849 13.3757 15.0727 13.1709L8.1591 6.49534Z" fill="#676767"/>
</g>
</g>
</svg>
