<svg width="84" height="64" viewBox="0 0 84 64" fill="none" xmlns="http://www.w3.org/2000/svg">
<g id="Frame" clip-path="url(#clip0_93_1155)">
<g id="Group">
<g id="Group_2">
<path id="Vector" d="M82.225 57.4167V6.17502C82.225 3.55835 80.1 1.43335 77.4833 1.43335H6.11667C3.5 1.43335 1.375 3.55835 1.375 6.17502V57.4167C1.375 60.0333 3.5 62.1584 6.11667 62.1584H77.4917C80.1083 62.1584 82.225 60.0333 82.225 57.4167Z" fill="#F7D959"/>
<path id="Vector_2" d="M77.4917 63.2H6.11668C2.92501 63.2 0.333344 60.6083 0.333344 57.4167V6.175C0.333344 2.99166 2.92501 0.391663 6.11668 0.391663H77.4917C80.6833 0.391663 83.275 2.98333 83.275 6.175V57.4167C83.2667 60.6083 80.675 63.2 77.4917 63.2ZM6.11668 2.48333C4.07501 2.48333 2.41668 4.14166 2.41668 6.18333V57.4167C2.41668 59.4583 4.07501 61.1167 6.11668 61.1167H77.4917C79.5333 61.1167 81.1917 59.4583 81.1917 57.4167V6.175C81.1917 4.13333 79.5333 2.475 77.4917 2.475H6.11668V2.48333Z" fill="#333333"/>
</g>
<g id="Group_3">
<path id="Vector_3" d="M75.4833 7.89166H8.125V55.7083H75.4833V7.89166Z" fill="white"/>
</g>
<g id="Group_4">
<path id="Vector_4" d="M51.7084 13.1166H31.9V16.7916H51.7084V13.1166Z" fill="#87B570"/>
</g>
<g id="Group_5">
<path id="Vector_5" d="M67.8917 20.6417H15.7083V22.4833H67.8917V20.6417Z" fill="#E6E6E6"/>
</g>
<g id="Group_6">
<path id="Vector_6" d="M67.8917 24.8167H15.7083V26.6583H67.8917V24.8167Z" fill="#E6E6E6"/>
</g>
<g id="Group_7">
<path id="Vector_7" d="M67.8917 28.9916H15.7083V30.8333H67.8917V28.9916Z" fill="#E6E6E6"/>
</g>
<g id="Group_8">
<path id="Vector_8" d="M55.95 43.2583H30.4V45.1H55.95V43.2583Z" fill="#E6E6E6"/>
</g>
<g id="Group_9">
<path id="Vector_9" d="M55.95 46.9H21.3667V49.3916H55.95V46.9Z" fill="#E6E6E6"/>
</g>
<g id="Group_10">
<path id="Vector_10" d="M62.9833 50.6833C65.6941 50.6833 67.8917 48.4858 67.8917 45.775C67.8917 43.0642 65.6941 40.8666 62.9833 40.8666C60.2725 40.8666 58.075 43.0642 58.075 45.775C58.075 48.4858 60.2725 50.6833 62.9833 50.6833Z" fill="#FF725D"/>
</g>
</g>
</g>
<defs>
<clipPath id="clip0_93_1155">
<rect width="83.3333" height="63.3333" fill="white" transform="translate(0.333344 0.333313)"/>
</clipPath>
</defs>
</svg>
