<svg width="85" height="63" viewBox="0 0 85 63" fill="none" xmlns="http://www.w3.org/2000/svg">
<g id="Frame" clip-path="url(#clip0_93_1179)">
<g id="Group">
<g id="Group_2">
<g id="Group_3">
<path id="Vector" d="M81.425 2.00836C55.4417 -1.18331 42.5917 6.17503 42.5917 6.17503C42.5917 6.17503 29.7417 -1.18331 3.75835 2.00836L1.54169 6.11669V45.0167H3.75835V44.35C3.75835 44.35 29.45 41.0584 42.5917 48.9584C54.475 41.8167 76.6084 43.8167 80.75 44.2667L83.65 44.9084V6.11669L81.425 2.00836Z" fill="white"/>
<path id="Vector_2" d="M42.5917 50C42.4083 50 42.2167 49.95 42.0583 49.85C34.9917 45.6 24.0333 44.7084 16.0917 44.7084C10.8583 44.7084 6.55 45.0917 4.775 45.2834C4.65833 45.725 4.25 46.0584 3.76667 46.0584H1.54167C0.966667 46.0584 0.5 45.5917 0.5 45.0167V6.11669C0.5 5.94169 0.541667 5.77502 0.625 5.62502L2.84167 1.52502C3 1.21669 3.3 1.01669 3.63333 0.97502C8.01667 0.441687 12.3167 0.166687 16.4083 0.166687C31.825 0.166687 40.45 3.93335 42.5917 5.00002C44.7333 3.93335 53.3583 0.166687 68.775 0.166687C72.875 0.166687 77.175 0.441687 81.55 0.97502C81.8833 1.01669 82.175 1.21669 82.3417 1.51669L84.5583 5.61669C84.6417 5.76669 84.6833 5.94169 84.6833 6.10835V44.9084C84.6833 45.225 84.5417 45.525 84.2917 45.7167C84.0417 45.9167 83.725 45.9917 83.4167 45.925L80.575 45.3C78.8917 45.1167 74.5083 44.7084 69.0917 44.7084C61.15 44.7084 50.1917 45.6 43.125 49.85C42.9667 49.95 42.775 50 42.5917 50ZM16.0833 42.625C24.1 42.625 35.1167 43.525 42.5917 47.75C50.0667 43.525 61.0833 42.625 69.0917 42.625C74.6667 42.625 79.175 43.05 80.8583 43.2334C80.9 43.2334 80.9333 43.2417 80.9667 43.25L82.6 43.6084V6.37502L80.7667 2.98335C76.6583 2.50002 72.625 2.25002 68.775 2.25002C51.8083 2.25002 43.1917 7.03335 43.1083 7.08335C42.7917 7.26669 42.3917 7.26669 42.075 7.08335C41.9917 7.03335 33.375 2.25002 16.4083 2.25002C12.5583 2.25002 8.525 2.50002 4.41667 2.98335L2.58333 6.37502V43.975H2.79167C2.925 43.625 3.24167 43.3667 3.63333 43.3167C3.68333 43.3084 9.08333 42.625 16.0833 42.625Z" fill="#333333"/>
</g>
<g id="Group_4">
<path id="Vector_3" d="M42.5917 11C42.5917 11 29.0084 2.37502 1.54169 6.11668V55.75C1.54169 55.75 28.7 51.8917 42.5917 61.15V11Z" fill="#43AEE8"/>
<path id="Vector_4" d="M42.5917 62.1917C42.3917 62.1917 42.1917 62.1334 42.0167 62.0167C34.5417 57.0334 22.9667 55.9917 14.575 55.9917C7.30833 55.9917 1.74167 56.7667 1.69167 56.775C1.39167 56.8167 1.09167 56.725 0.858333 56.5334C0.633333 56.3334 0.5 56.05 0.5 55.7417V6.11669C0.5 5.59169 0.883333 5.15003 1.4 5.08336C6.03333 4.45003 10.5833 4.13336 14.9167 4.13336C33.5083 4.13336 42.7667 9.87503 43.15 10.1167C43.45 10.3084 43.6333 10.6417 43.6333 11V61.15C43.6333 61.5334 43.425 61.8834 43.0833 62.0667C42.9333 62.15 42.7583 62.1917 42.5917 62.1917ZM14.575 53.9084C22.6833 53.9084 33.6917 54.875 41.55 59.2917V11.6C39.45 10.4667 30.5333 6.20836 14.9167 6.20836C10.9583 6.20836 6.80833 6.48336 2.58333 7.02503V54.5667C4.61667 54.3334 9.08333 53.9084 14.575 53.9084Z" fill="#333333"/>
</g>
<g id="Group_5">
<path id="Vector_5" d="M42.5917 11C42.5917 11 56.175 2.37502 83.6417 6.11668V55.75C83.6417 55.75 56.4833 51.8917 42.5917 61.15V11Z" fill="#43AEE8"/>
<path id="Vector_6" d="M42.5917 62.1917C42.425 62.1917 42.25 62.15 42.1 62.0667C41.7583 61.8834 41.55 61.5334 41.55 61.15V11C41.55 10.6417 41.7333 10.3084 42.0333 10.1167C42.4167 9.87503 51.675 4.13336 70.2667 4.13336C74.6 4.13336 79.15 4.45003 83.7833 5.08336C84.3 5.15003 84.6833 5.59169 84.6833 6.11669V55.75C84.6833 56.05 84.55 56.3417 84.325 56.5334C84.1 56.7334 83.7917 56.8167 83.4917 56.775C83.4333 56.7667 77.8583 55.9917 70.6083 55.9917C62.2167 55.9917 50.6417 57.0334 43.1667 62.0167C43 62.1334 42.7917 62.1917 42.5917 62.1917ZM43.6333 11.6V59.2917C51.4917 54.875 62.5 53.9084 70.6083 53.9084C76.1 53.9084 80.5583 54.3334 82.6 54.5667V7.02503C78.375 6.48336 74.225 6.20836 70.2667 6.20836C54.6583 6.2167 45.7333 10.4667 43.6333 11.6Z" fill="#333333"/>
</g>
<g id="Group_6">
<path id="Vector_7" d="M76 18.3417C67.475 17.9667 58.7584 19.075 50.2417 21.675C50.2417 20.2 50.2417 18.7167 50.2417 17.2417C58.7667 14.6417 67.4834 13.5334 76 13.9084C76 15.3834 76 16.8584 76 18.3417Z" fill="white"/>
</g>
</g>
<g id="Group_7">
<path id="Vector_8" d="M18.7083 28.8834H16.625V5.17502C16.625 4.93335 16.7083 4.69169 16.8667 4.50835L20.2 0.541687L21.7917 1.88335L18.7 5.55835V28.8834H18.7083Z" fill="#333333"/>
</g>
</g>
</g>
<defs>
<clipPath id="clip0_93_1179">
<rect width="84.1833" height="62.025" fill="white" transform="translate(0.5 0.166687)"/>
</clipPath>
</defs>
</svg>
