<svg width="92" height="64" viewBox="0 0 92 64" fill="none" xmlns="http://www.w3.org/2000/svg">
<g id="Frame" clip-path="url(#clip0_93_1198)">
<g id="Group">
<g id="Group_2">
<g id="Group_3">
<path id="Vector" d="M86.2751 57.3583V6.11667C86.2751 3.5 84.1501 1.375 81.5334 1.375H10.1667C7.55005 1.375 5.42505 3.5 5.42505 6.11667V57.3583C5.42505 59.975 7.55005 62.1 10.1667 62.1H81.5417C84.1584 62.0917 86.2751 59.975 86.2751 57.3583Z" fill="white"/>
<path id="Vector_2" d="M81.5417 63.1333H10.1667C6.98336 63.1333 4.38336 60.5416 4.38336 57.35V6.11665C4.38336 2.92498 6.97503 0.333313 10.1667 0.333313H81.5417C84.7334 0.333313 87.325 2.92498 87.325 6.11665V57.3583C87.3167 60.5416 84.725 63.1333 81.5417 63.1333ZM10.1667 2.41665C8.12503 2.41665 6.4667 4.07498 6.4667 6.11665V57.3583C6.4667 59.4 8.12503 61.0583 10.1667 61.0583H81.5417C83.5834 61.0583 85.2417 59.4 85.2417 57.3583V6.11665C85.2417 4.07498 83.5834 2.41665 81.5417 2.41665H10.1667Z" fill="#333333"/>
</g>
<g id="Group_4">
<path id="Vector_3" d="M79.5334 7.82495H12.175V55.6416H79.5334V7.82495Z" fill="#87B570"/>
</g>
</g>
<g id="Group_5">
<g id="Group_6">
<path id="Vector_4" d="M90.4917 59.5917C90.4917 60.9667 89.3667 62.0917 87.9917 62.0917H3.70837C2.33337 62.0917 1.20837 60.9667 1.20837 59.5917V55.0084C1.20837 53.6334 2.33337 52.5084 3.70837 52.5084H87.9917C89.3667 52.5084 90.4917 53.6334 90.4917 55.0084V59.5917Z" fill="white"/>
<path id="Vector_5" d="M87.9917 62.5083H3.70835C2.10002 62.5083 0.791687 61.2 0.791687 59.5917V55.0083C0.791687 53.4 2.10002 52.0917 3.70835 52.0917H87.9917C89.6 52.0917 90.9084 53.4 90.9084 55.0083V59.5917C90.9084 61.2 89.6 62.5083 87.9917 62.5083ZM3.70835 52.925C2.55835 52.925 1.62502 53.8583 1.62502 55.0083V59.5917C1.62502 60.7417 2.55835 61.675 3.70835 61.675H87.9917C89.1417 61.675 90.075 60.7417 90.075 59.5917V55.0083C90.075 53.8583 89.1417 52.925 87.9917 52.925H3.70835Z" fill="#333333"/>
</g>
<g id="Group_7">
<path id="Vector_6" d="M90.4917 59.5917C90.4917 60.9667 89.3667 62.0917 87.9917 62.0917H3.70837C2.33337 62.0917 1.20837 60.9667 1.20837 59.5917V55.0084C1.20837 53.6334 2.33337 52.5084 3.70837 52.5084H87.9917C89.3667 52.5084 90.4917 53.6334 90.4917 55.0084V59.5917Z" fill="white"/>
<path id="Vector_7" d="M87.9917 63.1333H3.70835C1.75835 63.1333 0.166687 61.55 0.166687 59.5917V55.0083C0.166687 53.0583 1.75835 51.4667 3.70835 51.4667H87.9917C89.9417 51.4667 91.5334 53.0583 91.5334 55.0083V59.5917C91.5334 61.55 89.95 63.1333 87.9917 63.1333ZM3.70835 53.55C2.90835 53.55 2.25002 54.2083 2.25002 55.0083V59.5917C2.25002 60.3917 2.90835 61.05 3.70835 61.05H87.9917C88.7917 61.05 89.45 60.3917 89.45 59.5917V55.0083C89.45 54.2083 88.7917 53.55 87.9917 53.55H3.70835Z" fill="#333333"/>
</g>
</g>
<g id="Group_8">
<g id="Group_9">
<path id="Vector_8" d="M83.0834 48.2167C83.0834 50.5834 81.1584 52.5084 78.7917 52.5084H67C64.625 52.5084 62.7084 50.5834 62.7084 48.2167C62.7084 45.8417 64.6334 43.925 67 43.925H78.7917C81.1667 43.925 83.0834 45.8417 83.0834 48.2167Z" fill="#F7D959"/>
<path id="Vector_9" d="M78.7917 53.55H67C64.0583 53.55 61.6667 51.1584 61.6667 48.2167C61.6667 45.275 64.0583 42.8834 67 42.8834H78.7917C81.7334 42.8834 84.125 45.275 84.125 48.2167C84.125 51.1584 81.7334 53.55 78.7917 53.55ZM67 44.9667C65.2083 44.9667 63.75 46.425 63.75 48.2167C63.75 50.0084 65.2083 51.4667 67 51.4667H78.7917C80.5834 51.4667 82.0417 50.0084 82.0417 48.2167C82.0417 46.425 80.5834 44.9667 78.7917 44.9667H67Z" fill="#333333"/>
</g>
<g id="Group_10">
<path id="Vector_10" d="M83.0917 43.025H62.7084V48.2167H83.0917V43.025Z" fill="#FF725D"/>
<path id="Vector_11" d="M83.0834 49.2583H62.7084C62.1334 49.2583 61.6667 48.7917 61.6667 48.2167V43.025C61.6667 42.45 62.1334 41.9833 62.7084 41.9833H83.0834C83.6584 41.9833 84.125 42.45 84.125 43.025V48.2167C84.125 48.7917 83.6584 49.2583 83.0834 49.2583ZM63.75 47.175H82.05V44.0667H63.75V47.175Z" fill="#333333"/>
</g>
<g id="Group_11">
<g id="Group_12">
<path id="Vector_12" d="M70.4 48.2167H68.3167V52.5083H70.4V48.2167Z" fill="#333333"/>
</g>
<g id="Group_13">
<path id="Vector_13" d="M77.4751 48.2167H75.3917V52.5083H77.4751V48.2167Z" fill="#333333"/>
</g>
</g>
</g>
<g id="Group_14">
<path id="Vector_14" d="M58.3501 46.8666H36.8917V52.5166H58.3501V46.8666Z" fill="white"/>
<path id="Vector_15" d="M58.3584 53.55H36.8917C36.3167 53.55 35.85 53.0833 35.85 52.5083V46.8583C35.85 46.2833 36.3167 45.8167 36.8917 45.8167H58.35C58.925 45.8167 59.3917 46.2833 59.3917 46.8583V52.5083C59.4 53.0833 58.9334 53.55 58.3584 53.55ZM37.9334 51.4666H57.3084V47.9H37.9334V51.4666Z" fill="#333333"/>
</g>
</g>
<g id="Group_15">
<path id="Vector_16" d="M20.4667 23.3H21.3083V33.1667H27.1333V33.8H20.475V23.3H20.4667Z" fill="white"/>
<path id="Vector_17" d="M28.6583 23.2833H35.1083V23.9417H29.5V28.05H34.425V28.7583H29.5V33.1583H35.1583V33.8333H28.6583V23.2833Z" fill="white"/>
<path id="Vector_18" d="M36.3667 33.1583L36.6667 32.4833C37.3834 32.975 38.5417 33.3083 39.5334 33.3083C41.2 33.3083 42.325 32.45 42.325 31.0917C42.325 29.8333 41.65 29.2917 40.2834 28.875L39.2334 28.5583C37.8084 28.125 36.6084 27.2667 36.6084 25.75C36.6084 24.2833 37.8834 23.1083 39.925 23.1083C41.2417 23.1083 42.2334 23.45 42.9584 23.8917L42.575 24.5C41.9417 24.1083 41.0584 23.8083 39.8417 23.8083C38.3834 23.8083 37.4584 24.5583 37.4584 25.65C37.4584 26.85 38.3584 27.4667 39.575 27.8583L40.5834 28.175C42.2667 28.7167 43.225 29.3417 43.225 31.0583C43.225 32.8167 41.6084 34.0167 39.5334 34.0167C38.3167 34.0083 37.025 33.6083 36.3667 33.1583Z" fill="white"/>
<path id="Vector_19" d="M44.4333 33.1583L44.7334 32.4833C45.45 32.975 46.6083 33.3083 47.6 33.3083C49.2667 33.3083 50.3917 32.45 50.3917 31.0917C50.3917 29.8333 49.7167 29.2917 48.35 28.875L47.3 28.5583C45.875 28.125 44.675 27.2667 44.675 25.75C44.675 24.2833 45.95 23.1083 47.9917 23.1083C49.3084 23.1083 50.3 23.45 51.025 23.8917L50.65 24.5C50.0167 24.1083 49.1333 23.8083 47.9167 23.8083C46.4583 23.8083 45.5333 24.5583 45.5333 25.65C45.5333 26.85 46.4334 27.4667 47.65 27.8583L48.6583 28.175C50.3417 28.7167 51.3 29.3417 51.3 31.0583C51.3 32.8167 49.675 34.0167 47.6084 34.0167C46.3834 34.0083 45.0917 33.6083 44.4333 33.1583Z" fill="white"/>
<path id="Vector_20" d="M52.625 28.55C52.625 25.1 54.5583 23.1 57.3167 23.1C59.9917 23.1 61.9417 25.0333 61.9417 28.575C61.9417 31.9666 60.0083 34.0083 57.2917 34.0083C54.4417 34.0083 52.625 32.075 52.625 28.55ZM61.0417 28.6666C61.0417 25.6083 59.6583 23.7916 57.275 23.775C55.025 23.775 53.4917 25.5583 53.4917 28.4416C53.4917 31.5 54.75 33.3333 57.2917 33.3333C59.5833 33.3333 61.0417 31.55 61.0417 28.6666Z" fill="white"/>
<path id="Vector_21" d="M63.5417 23.3H64.6667L70.3667 32.6V23.3H71.1917V33.8H70.1084L64.35 24.2833H64.3334V33.8H63.5417V23.3Z" fill="white"/>
</g>
</g>
<defs>
<clipPath id="clip0_93_1198">
<rect width="91.3667" height="62.8" fill="white" transform="translate(0.166687 0.333313)"/>
</clipPath>
</defs>
</svg>
