<svg width="80" height="67" viewBox="0 0 80 67" fill="none" xmlns="http://www.w3.org/2000/svg">
<g id="Frame" clip-path="url(#clip0_93_1240)">
<g id="Group">
<g id="Group_2">
<g id="Group_3">
<path id="Vector" d="M69.9917 23.1251H2.68338V27.5084H52.7834L52.7751 40.1501H2.67505V44.5417H69.9834C75.9 44.5417 78.75 39.7501 78.75 33.8334C78.75 27.9167 75.9 23.1251 69.9917 23.1251Z" fill="#43AEE8"/>
<path id="Vector_2" d="M69.9917 45.5834H2.68339C2.10839 45.5834 1.64172 45.1167 1.64172 44.5417V40.15C1.64172 39.875 1.75006 39.6084 1.95006 39.4167C2.14172 39.225 2.40839 39.1084 2.68339 39.1084H51.7417V28.55H2.68339C2.10839 28.55 1.64172 28.0834 1.64172 27.5084V23.125C1.64172 22.55 2.10839 22.0834 2.68339 22.0834H69.9917C75.9501 22.0834 79.8001 26.6917 79.8001 33.8334C79.8001 40.9667 75.9501 45.5834 69.9917 45.5834ZM3.72506 43.5H69.9917C75.6917 43.5 77.7167 38.5084 77.7167 33.8334C77.7167 29.1584 75.6834 24.1667 69.9917 24.1667H3.72506V26.4667H52.7834C53.0584 26.4667 53.3251 26.575 53.5167 26.775C53.7084 26.9667 53.8251 27.2334 53.8251 27.5084L53.8167 40.15C53.8167 40.725 53.3501 41.1917 52.7751 41.1917H3.71672V43.5H3.72506Z" fill="#333333"/>
</g>
<g id="Group_4">
<path id="Vector_3" d="M70.0917 27.5084H2.68335C6.17502 27.5084 6.24168 30.3417 6.24168 33.825C6.24168 37.3084 6.17502 40.1417 2.68335 40.1417H70.0917C73.5834 40.1417 74.2 37.3084 74.2 33.825C74.2 30.3417 73.575 27.5084 70.0917 27.5084Z" fill="white"/>
<path id="Vector_4" d="M70.0917 41.1917H2.68339C2.10839 41.1917 1.64172 40.725 1.64172 40.15C1.64172 39.575 2.10839 39.1084 2.68339 39.1084C4.87506 39.1084 5.20006 37.9167 5.20006 33.8334C5.20006 29.7417 4.86672 28.5584 2.68339 28.5584C2.10839 28.5584 1.64172 28.0917 1.64172 27.5167C1.64172 26.9417 2.10839 26.475 2.68339 26.475H70.0917C75.2417 26.475 75.2417 31.825 75.2417 33.8334C75.2417 35.8417 75.2417 41.1917 70.0917 41.1917ZM6.54172 39.1084H70.0834C72.0251 39.1084 73.1501 38.2417 73.1501 33.8334C73.1501 29.4167 72.0251 28.5584 70.0834 28.5584H6.54172C7.28339 30.0334 7.28339 32.05 7.28339 33.8334C7.28339 35.6167 7.28339 37.6417 6.54172 39.1084Z" fill="#333333"/>
</g>
</g>
<g id="Group_5">
<g id="Group_6">
<path id="Vector_5" d="M10.6417 44.5417H77.95V48.925H27.85L27.8583 61.5667H77.9583V65.95H10.6417C4.725 65.95 1.875 61.1583 1.875 55.2417C1.875 49.3334 4.73333 44.5417 10.6417 44.5417Z" fill="#FF725D"/>
<path id="Vector_6" d="M77.95 66.9917H10.6417C4.68337 66.9917 0.833374 62.3834 0.833374 55.2417C0.833374 48.1084 4.68337 43.4917 10.6417 43.4917H77.95C78.525 43.4917 78.9917 43.9584 78.9917 44.5334V48.9167C78.9917 49.4917 78.525 49.9584 77.95 49.9584H28.8917L28.9 60.5167H77.9584C78.5334 60.5167 79 60.9834 79 61.5584V65.9417C78.9917 66.525 78.525 66.9917 77.95 66.9917ZM10.6417 45.5834C4.94171 45.5834 2.91671 50.575 2.91671 55.25C2.91671 59.925 4.95004 64.9167 10.6417 64.9167H76.9084V62.6167H27.85C27.275 62.6167 26.8084 62.15 26.8084 61.575L26.8 48.9334C26.8 48.6584 26.9084 48.3917 27.1084 48.2C27.3 48.0084 27.5667 47.8917 27.8417 47.8917H76.9V45.5834H10.6417Z" fill="#333333"/>
</g>
<g id="Group_7">
<path id="Vector_7" d="M10.5417 48.925H77.95C74.4584 48.925 74.3917 51.7584 74.3917 55.2417C74.3917 58.7334 74.4584 61.5584 77.95 61.5584H10.5417C7.05002 61.5584 6.43335 58.725 6.43335 55.2417C6.43335 51.7584 7.05002 48.925 10.5417 48.925Z" fill="white"/>
<path id="Vector_8" d="M77.9667 62.6084C77.9584 62.6084 77.9584 62.6084 77.9501 62.6084H10.5417C5.39172 62.6084 5.39172 57.2584 5.39172 55.2501C5.39172 53.2334 5.39172 47.8917 10.5417 47.8917H77.9501C78.5251 47.8917 78.9917 48.3584 78.9917 48.9334C78.9917 49.5084 78.5251 49.9751 77.9501 49.9751C75.7584 49.9751 75.4334 51.1667 75.4334 55.2501C75.4334 59.3417 75.7667 60.5251 77.9501 60.5251H77.9584H77.9667C78.5417 60.5251 79.0084 60.9917 79.0084 61.5667C79.0084 62.1417 78.5417 62.6084 77.9667 62.6084ZM10.5417 49.9667C8.60006 49.9667 7.47506 50.8334 7.47506 55.2417C7.47506 59.6584 8.60006 60.5167 10.5417 60.5167H74.0834C73.3417 59.0417 73.3417 57.0251 73.3417 55.2417C73.3417 53.4584 73.3417 51.4334 74.0834 49.9667H10.5417Z" fill="#333333"/>
</g>
</g>
<g id="Group_8">
<g id="Group_9">
<path id="Vector_9" d="M10.6417 1.70837H77.95V6.09171H27.85L27.8583 18.7334H77.9583V23.1167H10.6417C4.725 23.1167 1.875 18.325 1.875 12.4084C1.875 6.50004 4.73333 1.70837 10.6417 1.70837Z" fill="#F7D959"/>
<path id="Vector_10" d="M77.95 24.1667H10.6417C4.68337 24.1667 0.833374 19.55 0.833374 12.4167C0.833374 5.27502 4.68337 0.666687 10.6417 0.666687H77.95C78.525 0.666687 78.9917 1.13335 78.9917 1.70835V6.09169C78.9917 6.66669 78.525 7.13335 77.95 7.13335H28.8917L28.9 17.6917H77.9584C78.5334 17.6917 79 18.1584 79 18.7334V23.1167C78.9917 23.7 78.525 24.1667 77.95 24.1667ZM10.6417 2.75002C4.95004 2.75002 2.91671 7.74169 2.91671 12.4167C2.91671 17.0917 4.95004 22.0834 10.6417 22.0834H76.9084V19.7834H27.85C27.275 19.7834 26.8084 19.3167 26.8084 18.7417V6.09169C26.8084 5.81669 26.9167 5.55002 27.1167 5.35835C27.3084 5.16669 27.575 5.05002 27.85 5.05002H76.9084V2.75002H10.6417Z" fill="#333333"/>
</g>
<g id="Group_10">
<path id="Vector_11" d="M10.5417 6.09167H77.95C74.4584 6.09167 74.3917 8.92501 74.3917 12.4083C74.3917 15.9 74.4584 18.725 77.95 18.725H10.5417C7.05002 18.725 6.43335 15.8917 6.43335 12.4083C6.43335 8.92501 7.05002 6.09167 10.5417 6.09167Z" fill="white"/>
<path id="Vector_12" d="M77.9667 19.775C77.9584 19.775 77.9584 19.775 77.9501 19.775H10.5417C5.39172 19.775 5.39172 14.425 5.39172 12.4167C5.39172 10.4083 5.39172 5.05835 10.5417 5.05835H77.9501C78.5251 5.05835 78.9917 5.52502 78.9917 6.10002C78.9917 6.67502 78.5251 7.14168 77.9501 7.14168C75.7584 7.14168 75.4334 8.33335 75.4334 12.4167C75.4334 16.5083 75.7667 17.6917 77.9501 17.6917H77.9584H77.9667C78.5417 17.6917 79.0084 18.1583 79.0084 18.7333C79.0084 19.3083 78.5417 19.775 77.9667 19.775ZM10.5417 7.13335C8.60006 7.13335 7.47506 8.00002 7.47506 12.4083C7.47506 16.825 8.60006 17.6833 10.5417 17.6833H74.0834C73.3417 16.2083 73.3417 14.1917 73.3417 12.4083C73.3417 10.625 73.3417 8.60002 74.0834 7.13335H10.5417Z" fill="#333333"/>
</g>
</g>
</g>
</g>
<defs>
<clipPath id="clip0_93_1240">
<rect width="78.9667" height="66.325" fill="white" transform="translate(0.833374 0.666687)"/>
</clipPath>
</defs>
</svg>
