<svg width="74" height="78" viewBox="0 0 74 78" fill="none" xmlns="http://www.w3.org/2000/svg">
<g id="Frame" clip-path="url(#clip0_93_1266)">
<g id="Group">
<g id="Group_2">
<g id="Group_3">
<g id="Group_4">
<g id="Group_5">
<path id="Vector" d="M66.375 57.5833C67.0083 58.7833 68.8583 59.9833 70.225 59.8833C70.9583 59.825 71.5333 59.45 72.05 58.9583C71.125 63.5333 68.9583 65.9166 66.4333 65.9166C64.2667 65.9166 62.3667 64.15 61.2833 60.7583C63.575 61.05 65.3083 59.5916 66.375 57.5833Z" fill="white"/>
</g>
<g id="Group_6">
<path id="Vector_2" d="M66.4333 39.25C69.8 39.25 72.525 45.725 72.525 53.7083C72.525 55.6917 72.3583 57.4417 72.05 58.9583C71.5333 59.45 70.9583 59.825 70.225 59.8833C68.8583 59.9833 67.0083 58.7833 66.375 57.5833C65.3083 59.6 63.5833 61.0583 61.2917 60.7667C60.7 58.9 60.35 56.55 60.35 53.7083C60.3417 45.725 63.0667 39.25 66.4333 39.25Z" fill="#FF725D"/>
</g>
</g>
<g id="Group_7">
<g id="Group_8">
<path id="Vector_3" d="M14.0999 57.5833C13.4666 58.7833 11.6166 59.9833 10.2499 59.8833C9.51659 59.825 8.94159 59.45 8.42493 58.9583C9.34993 63.5333 11.5166 65.9166 14.0416 65.9166C16.2083 65.9166 18.1083 64.15 19.1916 60.7583C16.8916 61.05 15.1666 59.5916 14.0999 57.5833Z" fill="white"/>
</g>
<g id="Group_9">
<path id="Vector_4" d="M14.0333 39.25C10.6667 39.25 7.94165 45.725 7.94165 53.7083C7.94165 55.6917 8.10832 57.4417 8.41665 58.9583C8.93332 59.45 9.50832 59.825 10.2417 59.8833C11.6083 59.9833 13.4583 58.7833 14.0917 57.5833C15.1583 59.6 16.8833 61.0583 19.175 60.7667C19.7667 58.9 20.1166 56.55 20.1166 53.7083C20.125 45.725 17.4 39.25 14.0333 39.25Z" fill="#FF725D"/>
</g>
</g>
</g>
<g id="Group_10">
<g id="Group_11">
<path id="Vector_5" d="M66.4334 66.9584C62.1 66.9584 59.3 61.7584 59.3 53.7084C59.3 44.875 62.3667 38.2084 66.4334 38.2084C70.5 38.2084 73.5667 44.875 73.5667 53.7084C73.5667 61.7584 70.7667 66.9584 66.4334 66.9584ZM66.4334 40.2917C64.0417 40.2917 61.3834 45.8 61.3834 53.7084C61.3834 61.425 63.9167 64.875 66.4334 64.875C68.95 64.875 71.4834 61.425 71.4834 53.7084C71.4834 45.8 68.825 40.2917 66.4334 40.2917Z" fill="#333333"/>
</g>
<g id="Group_12">
<path id="Vector_6" d="M14.0334 66.9584C9.70002 66.9584 6.90002 61.7584 6.90002 53.7084C6.90002 44.875 9.96669 38.2084 14.0334 38.2084C18.1 38.2084 21.1667 44.875 21.1667 53.7084C21.1667 61.7584 18.3667 66.9584 14.0334 66.9584ZM14.0334 40.2917C11.6417 40.2917 8.98336 45.8 8.98336 53.7084C8.98336 61.425 11.5167 64.875 14.0334 64.875C16.55 64.875 19.0834 61.425 19.0834 53.7084C19.0834 45.8 16.425 40.2917 14.0334 40.2917Z" fill="#333333"/>
</g>
</g>
<g id="Group_13">
<path id="Vector_7" d="M66.2916 41.7417C66.2916 41.7417 66.1916 19.7667 66.1916 19.6167C66.1833 18.1834 65.3749 17.2001 63.9083 17.4501C57.0583 18.6167 50.2083 19.7834 43.3499 20.8834C42.3249 20.7751 41.2833 20.7167 40.2249 20.7167C39.1666 20.7167 38.1249 20.7751 37.1083 20.8834C30.2416 19.7834 23.3999 18.6167 16.5499 17.4501C15.0833 17.2001 14.2749 18.1834 14.2749 19.6167C14.2749 19.7667 14.1749 41.7417 14.1749 41.7417C14.1749 42.0667 14.2166 42.3584 14.2833 42.6167C14.2166 43.3751 14.1749 44.1334 14.1749 44.9167V50.2834C14.1749 69.7667 25.8416 70.6001 40.2333 70.6001C54.6249 70.6001 66.2916 70.6001 66.2916 50.2834V44.9167C66.2916 44.1334 66.2499 43.3751 66.1833 42.6167C66.2499 42.3667 66.2916 42.0751 66.2916 41.7417Z" fill="#FF725D"/>
<path id="Vector_8" d="M40.2333 71.65C27.5333 71.65 13.1333 71.65 13.1333 50.2917V44.925C13.1333 44.2084 13.1666 43.4834 13.2333 42.7084C13.1666 42.4 13.1333 42.0834 13.1333 41.75C13.1333 41.75 13.2333 19.8417 13.2333 19.625C13.2416 17.6834 14.4 16.3834 16.1083 16.3834C16.3 16.3834 16.5083 16.4 16.725 16.4417C23.4 17.575 30.3083 18.7584 37.1416 19.85C39.2166 19.6417 41.2333 19.6417 43.3166 19.85C50.1583 18.75 57.0583 17.575 63.7333 16.4417C65.8166 16.0834 67.2166 17.4667 67.2333 19.625C67.2333 19.85 67.3333 41.75 67.3333 41.75C67.3333 42.0917 67.3 42.4084 67.2333 42.7084C67.3 43.4667 67.3333 44.1917 67.3333 44.925V50.2917C67.3333 71.65 54.775 71.65 40.2333 71.65ZM16.1166 18.4584C15.5916 18.4584 15.325 18.85 15.325 19.625C15.325 19.7667 15.225 41.75 15.225 41.75C15.225 41.9667 15.25 42.175 15.3 42.35L15.35 42.525L15.3333 42.7084C15.2666 43.4917 15.2333 44.2084 15.2333 44.9084V50.275C15.2333 68.2084 25.1333 69.55 40.25 69.55C54.775 69.55 65.2666 69.55 65.2666 50.275V44.9084C65.2666 44.1834 65.2333 43.4667 65.1583 42.7084L65.1416 42.5167L65.1916 42.3334C65.2416 42.1584 65.2666 41.95 65.2666 41.7334C65.2666 41.7334 65.1666 19.7584 65.1666 19.6084C65.1583 18.7167 64.775 18.3584 64.1083 18.475C57.3833 19.6167 50.4333 20.8 43.5333 21.9084L43.4 21.9334L43.2666 21.9167C41.2333 21.7084 39.275 21.7084 37.2416 21.9167L37.1083 21.9334L36.975 21.9084C30.0916 20.8084 23.1333 19.625 16.4 18.475C16.2833 18.4667 16.2 18.4584 16.1166 18.4584Z" fill="#333333"/>
</g>
<g id="Group_14">
<g id="Group_15">
<path id="Vector_9" d="M32.2417 40.8167C32.2167 41.0917 32.2001 41.3667 32.2001 41.65C32.2001 46.0834 35.8001 49.6834 40.2334 49.6834C44.6751 49.6834 48.2667 46.0834 48.2667 41.65C48.2667 41.3667 48.2501 41.0917 48.2251 40.8167H32.2417Z" fill="white"/>
</g>
</g>
<g id="Group_16">
<g id="Group_17">
<path id="Vector_10" d="M39.9167 34.9584C39.9167 40.6417 35.3084 45.25 29.625 45.25C23.9417 45.25 19.3334 40.6417 19.3334 34.9584C19.3334 29.275 23.9417 24.6667 29.625 24.6667C35.3167 24.6584 39.9167 29.2667 39.9167 34.9584Z" fill="white"/>
</g>
<g id="Group_18">
<path id="Vector_11" d="M61.1334 34.9584C61.1334 40.6417 56.5251 45.25 50.8417 45.25C45.1584 45.25 40.55 40.6417 40.55 34.9584C40.55 29.275 45.1584 24.6667 50.8417 24.6667C56.5251 24.6584 61.1334 29.2667 61.1334 34.9584Z" fill="white"/>
</g>
<g id="Group_19">
<path id="Vector_12" d="M33.2917 34.9584C33.2917 36.9834 31.65 38.625 29.625 38.625C27.6 38.625 25.9584 36.9834 25.9584 34.9584C25.9584 32.9334 27.6 31.2917 29.625 31.2917C31.65 31.2917 33.2917 32.925 33.2917 34.9584Z" fill="#333333"/>
</g>
<g id="Group_20">
<path id="Vector_13" d="M54.7417 34.9584C54.7417 36.9834 53.1 38.625 51.075 38.625C49.05 38.625 47.4083 36.9834 47.4083 34.9584C47.4083 32.9334 49.05 31.2917 51.075 31.2917C53.1 31.2917 54.7417 32.925 54.7417 34.9584Z" fill="#333333"/>
</g>
</g>
<g id="Group_21">
<path id="Vector_14" d="M41.825 33.25C40.95 32.6334 39.5167 32.6334 38.65 33.25L34.425 36.2C33.55 36.8084 33.55 37.8167 34.425 38.425L38.65 41.375C39.525 41.9917 40.9584 41.9917 41.825 41.375L46.05 38.425C46.925 37.8167 46.925 36.8167 46.05 36.2L41.825 33.25Z" fill="#FF725D"/>
</g>
<g id="Group_22">
<g id="Group_23">
<g id="Group_24">
<path id="Vector_15" d="M34.375 71.8167C34.375 74.4834 32.2167 76.6417 29.55 76.6417H25.125C22.4667 76.6417 20.3083 74.4834 20.3083 71.8167C20.3083 69.1584 22.4667 66.9917 25.125 66.9917H29.55C32.2167 66.9917 34.375 69.15 34.375 71.8167Z" fill="#F7D959"/>
<path id="Vector_16" d="M29.5584 77.675H25.1334C21.9 77.675 19.275 75.0417 19.275 71.8084C19.275 68.575 21.9084 65.9417 25.1334 65.9417H29.5584C32.7917 65.9417 35.425 68.575 35.425 71.8084C35.4167 75.05 32.7917 77.675 29.5584 77.675ZM25.125 68.0334C23.0417 68.0334 21.35 69.725 21.35 71.8167C21.35 73.9 23.0417 75.6 25.125 75.6H29.55C31.6334 75.6 33.3334 73.9084 33.3334 71.8167C33.3334 69.7334 31.6417 68.0334 29.55 68.0334H25.125Z" fill="#333333"/>
</g>
<g id="Group_25">
<path id="Vector_17" d="M60.1583 71.8167C60.1583 74.4834 58 76.6417 55.3417 76.6417H50.9167C48.2583 76.6417 46.0917 74.4834 46.0917 71.8167C46.0917 69.1584 48.25 66.9917 50.9167 66.9917H55.3417C58 66.9917 60.1583 69.15 60.1583 71.8167Z" fill="#F7D959"/>
<path id="Vector_18" d="M55.3417 77.675H50.9167C47.6834 77.675 45.05 75.0417 45.05 71.8084C45.05 68.575 47.6834 65.9417 50.9167 65.9417H55.3417C58.5751 65.9417 61.2001 68.575 61.2001 71.8084C61.2001 75.05 58.5751 77.675 55.3417 77.675ZM50.9167 68.0334C48.8334 68.0334 47.1334 69.725 47.1334 71.8167C47.1334 73.9 48.825 75.6 50.9167 75.6H55.3417C57.4251 75.6 59.1167 73.9084 59.1167 71.8167C59.1167 69.7334 57.4251 68.0334 55.3417 68.0334H50.9167Z" fill="#333333"/>
</g>
</g>
<g id="Group_26">
<g id="Group_27">
<path id="Vector_19" d="M50.9667 77.6751C50.3917 77.6751 49.925 77.2084 49.925 76.6334V72.9667C49.925 72.3917 50.3917 71.925 50.9667 71.925C51.5417 71.925 52.0084 72.3917 52.0084 72.9667V76.6334C52.0084 77.2084 51.5417 77.6751 50.9667 77.6751Z" fill="#333333"/>
</g>
<g id="Group_28">
<path id="Vector_20" d="M55.1333 77.6751C54.5583 77.6751 54.0917 77.2084 54.0917 76.6334V72.9667C54.0917 72.3917 54.5583 71.925 55.1333 71.925C55.7083 71.925 56.175 72.3917 56.175 72.9667V76.6334C56.175 77.2084 55.7083 77.6751 55.1333 77.6751Z" fill="#333333"/>
</g>
</g>
<g id="Group_29">
<g id="Group_30">
<path id="Vector_21" d="M25.1667 77.6751C24.5917 77.6751 24.125 77.2084 24.125 76.6334V72.9667C24.125 72.3917 24.5917 71.925 25.1667 71.925C25.7417 71.925 26.2083 72.3917 26.2083 72.9667V76.6334C26.2083 77.2084 25.7417 77.6751 25.1667 77.6751Z" fill="#333333"/>
</g>
<g id="Group_31">
<path id="Vector_22" d="M29.3333 77.6751C28.7583 77.6751 28.2916 77.2084 28.2916 76.6334V72.9667C28.2916 72.3917 28.7583 71.925 29.3333 71.925C29.9083 71.925 30.375 72.3917 30.375 72.9667V76.6334C30.375 77.2084 29.9083 77.6751 29.3333 77.6751Z" fill="#333333"/>
</g>
</g>
</g>
</g>
<g id="Group_32">
<g id="Group_33">
<g id="Group_34">
<path id="Vector_23" d="M27.25 10.6V15.2917V19.6584C27.25 21.35 33.2917 22.725 40.7333 22.725C48.1833 22.725 54.2167 21.35 54.2167 19.6584V15.2917V10.6H27.25Z" fill="#87B570"/>
</g>
<g id="Group_35">
<path id="Vector_24" d="M40.7334 23.775C39.25 23.775 26.2084 23.6583 26.2084 19.6667V10.6C26.2084 10.025 26.675 9.55835 27.25 9.55835H54.225C54.8 9.55835 55.2667 10.025 55.2667 10.6V19.6583C55.2584 23.6583 42.2167 23.775 40.7334 23.775ZM28.2917 19.5834C28.85 20.3583 33.3667 21.6917 40.7334 21.6917C48.1 21.6917 52.6167 20.3583 53.175 19.5834V11.65H28.2917V19.5834Z" fill="#333333"/>
</g>
</g>
<g id="Group_36">
<path id="Vector_25" d="M59.3168 16.125C58.7418 16.125 58.2751 15.6583 58.2751 15.0833V9.87498C58.2751 9.29998 58.7418 8.83331 59.3168 8.83331C59.8918 8.83331 60.3585 9.29998 60.3585 9.87498V15.0833C60.3585 15.6583 59.8918 16.125 59.3168 16.125Z" fill="#333333"/>
</g>
<g id="Group_37">
<path id="Vector_26" d="M61.5584 9.14165L40.7334 16.0166L19.9084 9.14165L40.7334 1.70831L61.5584 9.14165Z" fill="#87B570"/>
<path id="Vector_27" d="M40.7334 17.0583C40.6251 17.0583 40.5168 17.0417 40.4084 17.0083L19.5834 10.1333C19.1584 9.99167 18.8751 9.6 18.8668 9.15834C18.8584 8.71667 19.1418 8.31667 19.5584 8.16667L40.3834 0.733337C40.6084 0.650004 40.8584 0.650004 41.0834 0.733337L61.9084 8.16667C62.3251 8.31667 62.6084 8.71667 62.6001 9.15834C62.5918 9.6 62.3084 9.99167 61.8834 10.1333L41.0584 17.0083C40.9584 17.0417 40.8418 17.0583 40.7334 17.0583ZM23.1084 9.1L40.7334 14.9167L58.3584 9.1L40.7334 2.81667L23.1084 9.1Z" fill="#333333"/>
</g>
<g id="Group_38">
<g id="Group_39">
<path id="Vector_28" d="M59.3167 15.0834C58.325 15.0834 57.525 15.8834 57.525 16.875V19.75H61.1167V16.875C61.1167 15.8917 60.3084 15.0834 59.3167 15.0834Z" fill="#F7D959"/>
<path id="Vector_29" d="M61.1167 20.7917H57.5251C56.9501 20.7917 56.4834 20.325 56.4834 19.75V16.875C56.4834 15.3084 57.7584 14.0417 59.3167 14.0417C60.8834 14.0417 62.1501 15.3167 62.1501 16.875V19.75C62.1584 20.325 61.6917 20.7917 61.1167 20.7917ZM58.5667 18.7084H60.0751V16.875C60.0751 16.4584 59.7334 16.125 59.3251 16.125C58.9084 16.125 58.5751 16.4667 58.5751 16.875V18.7084H58.5667Z" fill="#333333"/>
</g>
</g>
</g>
<g id="Group_40">
<path id="Vector_30" d="M13.2584 61.8417C12.8751 61.8417 12.5084 61.6334 12.3251 61.2667L0.450069 37.7834C0.191736 37.2667 0.400069 36.6417 0.908403 36.3834C1.42507 36.125 2.05007 36.3334 2.3084 36.8417L14.1917 60.3334C14.4501 60.85 14.2417 61.475 13.7334 61.7334C13.5751 61.8084 13.4167 61.8417 13.2584 61.8417Z" fill="#333333"/>
</g>
</g>
</g>
<defs>
<clipPath id="clip0_93_1266">
<rect width="73.2333" height="77.0083" fill="white" transform="translate(0.333374 0.666687)"/>
</clipPath>
</defs>
</svg>
