<svg width="83" height="77" viewBox="0 0 83 77" fill="none" xmlns="http://www.w3.org/2000/svg">
<g id="Frame" clip-path="url(#clip0_93_1346)">
<g id="Group">
<g id="Group_2">
<g id="Group_3">
<g id="Group_4">
<path id="Vector" d="M24.7833 71.3167C24.7833 73.6917 22.8583 75.6167 20.4833 75.6167H16.4083C14.0333 75.6167 12.1083 73.6917 12.1083 71.3167V53.5501C12.1083 51.1751 14.0333 49.2501 16.4083 49.2501H20.4833C22.8583 49.2501 24.7833 51.1751 24.7833 53.5501V71.3167Z" fill="#87B570"/>
<path id="Vector_2" d="M20.4833 76.6584H16.4083C13.4583 76.6584 11.0667 74.2584 11.0667 71.3167V53.55C11.0667 50.6 13.4667 48.2084 16.4083 48.2084H20.4833C23.4333 48.2084 25.825 50.6084 25.825 53.55V71.325C25.825 74.2667 23.4333 76.6584 20.4833 76.6584ZM16.4083 50.2834C14.6083 50.2834 13.15 51.7417 13.15 53.5417V71.3167C13.15 73.1167 14.6083 74.575 16.4083 74.575H20.4833C22.2833 74.575 23.7416 73.1167 23.7416 71.3167V53.55C23.7416 51.75 22.2833 50.2917 20.4833 50.2917H16.4083V50.2834Z" fill="#333333"/>
</g>
<g id="Group_5">
<path id="Vector_3" d="M70.5499 71.3167C70.5499 73.6917 68.6249 75.6167 66.2499 75.6167H62.1749C59.7999 75.6167 57.8749 73.6917 57.8749 71.3167V53.5501C57.8749 51.1751 59.7999 49.2501 62.1749 49.2501H66.2499C68.6249 49.2501 70.5499 51.1751 70.5499 53.5501V71.3167Z" fill="#87B570"/>
<path id="Vector_4" d="M66.2499 76.6584H62.1749C59.2249 76.6584 56.8333 74.2584 56.8333 71.3167V53.55C56.8333 50.6 59.2333 48.2084 62.1749 48.2084H66.2499C69.1999 48.2084 71.5916 50.6084 71.5916 53.55V71.325C71.5916 74.2667 69.1916 76.6584 66.2499 76.6584ZM62.1749 50.2834C60.3749 50.2834 58.9166 51.7417 58.9166 53.5417V71.3167C58.9166 73.1167 60.3749 74.575 62.1749 74.575H66.2499C68.0499 74.575 69.5083 73.1167 69.5083 71.3167V53.55C69.5083 51.75 68.0499 50.2917 66.2499 50.2917H62.1749V50.2834Z" fill="#333333"/>
</g>
</g>
<g id="Group_6">
<path id="Vector_5" d="M72.7749 37.3917H70.1583V13.7584C70.1583 14.0417 70.1583 14.25 70.1583 14.4167C70.1249 7.39171 57.2249 1.70837 41.3249 1.70837C25.4249 1.70837 12.5333 7.39171 12.4999 14.4167C12.4999 14.25 12.4999 14.0417 12.4999 13.7584V37.3917H9.88328C8.69994 37.3917 7.73328 38.3584 7.73328 39.5417V62.8584C7.73328 64.0417 8.69994 65.0084 9.88328 65.0084H72.7749C73.9583 65.0084 74.9249 64.0417 74.9249 62.8584V39.55C74.9249 38.3584 73.9583 37.3917 72.7749 37.3917ZM70.1583 14.4834C70.1583 15.0417 70.1416 14.9334 70.1333 14.8334C70.1416 14.7084 70.1583 14.5917 70.1583 14.4834ZM12.5249 14.825C12.5166 14.9334 12.5083 15.0334 12.5083 14.4834C12.5083 14.5917 12.5166 14.7084 12.5249 14.825Z" fill="#F7D959"/>
<path id="Vector_6" d="M72.775 66.05H9.88332C8.12498 66.05 6.69165 64.6167 6.69165 62.8583V39.55C6.69165 37.7917 8.12498 36.3584 9.88332 36.3584H11.4583V13.7584C11.4583 13.6 11.4917 13.45 11.5583 13.3167C12.7667 6.14169 25.4166 0.666687 41.325 0.666687C57.2416 0.666687 69.9 6.14169 71.1 13.325C71.1583 13.4584 71.1917 13.6 71.1917 13.7584V36.35H72.7666C74.525 36.35 75.9583 37.7834 75.9583 39.5417V62.8583C75.9666 64.6167 74.5333 66.05 72.775 66.05ZM9.88332 38.4334C9.26665 38.4334 8.77498 38.9334 8.77498 39.5417V62.8583C8.77498 63.475 9.27498 63.9667 9.88332 63.9667H72.775C73.3916 63.9667 73.8833 63.4667 73.8833 62.8583V39.55C73.8833 38.9334 73.3833 38.4417 72.775 38.4417H70.1583C69.5833 38.4417 69.1166 37.975 69.1166 37.4V15.0667C69.1083 15.0167 69.1 14.9584 69.1 14.9C69.1 14.85 69.1 14.7917 69.1 14.7417C69.1083 14.65 69.1166 14.5584 69.1166 14.4667C69.1166 14.4584 69.1166 14.45 69.1166 14.4334V14.425C69.0833 8.10002 56.3583 2.75002 41.325 2.75002C26.2916 2.75002 13.575 8.10002 13.5416 14.425C13.5416 14.4334 13.5416 14.4417 13.5416 14.45V14.4584C13.5416 14.5334 13.55 14.6084 13.5583 14.6834C13.5583 14.7334 13.5666 14.85 13.5583 14.9C13.5583 14.9584 13.55 15.0084 13.5416 15.0584V37.3917C13.5416 37.9667 13.075 38.4334 12.5 38.4334H9.88332Z" fill="#333333"/>
</g>
<g id="Group_7">
<path id="Vector_7" d="M26.4333 47.7C26.4333 49.9584 24.5916 51.8 22.3333 51.8H20.1499C17.8833 51.8 16.0499 49.9584 16.0499 47.7C16.0499 45.4334 17.8916 43.6 20.1499 43.6H22.3333C24.5916 43.6 26.4333 45.4334 26.4333 47.7Z" fill="white"/>
</g>
<g id="Group_8">
<g id="Group_9">
<g id="Group_10">
<path id="Vector_8" d="M62.5584 35.5834C62.5584 36 62.2167 36.3334 61.8084 36.3334H45.4917C45.075 36.3334 44.7417 35.9917 44.7417 35.5834V20.5834C44.7417 20.1667 45.0834 19.8334 45.4917 19.8334H61.8084C62.225 19.8334 62.5584 20.175 62.5584 20.5834V35.5834Z" fill="white"/>
</g>
</g>
<g id="Group_11">
<g id="Group_12">
<path id="Vector_9" d="M37.4084 35.5834C37.4084 36 37.0667 36.3334 36.6584 36.3334H20.3334C19.9167 36.3334 19.5834 35.9917 19.5834 35.5834V20.5834C19.5834 20.1667 19.925 19.8334 20.3334 19.8334H36.65C37.0667 19.8334 37.4 20.175 37.4 20.5834V35.5834H37.4084Z" fill="white"/>
</g>
</g>
</g>
<g id="Group_13">
<path id="Vector_10" d="M66.6083 47.7C66.6083 49.9584 64.7749 51.8 62.5083 51.8H60.3333C58.0666 51.8 56.2333 49.9584 56.2333 47.7C56.2333 45.4334 58.0666 43.6 60.3333 43.6H62.5083C64.7749 43.6 66.6083 45.4334 66.6083 47.7Z" fill="white"/>
</g>
<g id="Group_14">
<path id="Vector_11" d="M50.6583 46.4417H31.6416C31.0666 46.4417 30.6 45.975 30.6 45.4C30.6 44.825 31.0666 44.3583 31.6416 44.3583H50.6583C51.2333 44.3583 51.7 44.825 51.7 45.4C51.7 45.975 51.2333 46.4417 50.6583 46.4417Z" fill="#333333"/>
</g>
<g id="Group_15">
<path id="Vector_12" d="M50.6583 49.5167H31.6416C31.0666 49.5167 30.6 49.05 30.6 48.475C30.6 47.9 31.0666 47.4333 31.6416 47.4333H50.6583C51.2333 47.4333 51.7 47.9 51.7 48.475C51.7 49.05 51.2333 49.5167 50.6583 49.5167Z" fill="#333333"/>
</g>
</g>
<g id="Group_16">
<path id="Vector_13" d="M60.6583 36.3333H58.5749C58.5749 33.6167 56.3666 31.4083 53.6499 31.4083C50.9333 31.4083 48.7249 33.6167 48.7249 36.3333H46.6416C46.6416 32.4667 49.7833 29.325 53.6499 29.325C57.5166 29.325 60.6583 32.4667 60.6583 36.3333Z" fill="#333333"/>
</g>
<g id="Group_17">
<g id="Group_18">
<path id="Vector_14" d="M8.23325 33.3334C8.23325 33.7917 7.85825 34.1667 7.39992 34.1667H2.04159C1.58325 34.1667 1.20825 33.7917 1.20825 33.3334V23.2584C1.20825 22.8 1.58325 22.425 2.04159 22.425H7.39992C7.85825 22.425 8.23325 22.8 8.23325 23.2584V33.3334Z" fill="#F7D959"/>
<path id="Vector_15" d="M7.39996 35.2084H2.04163C1.00829 35.2084 0.166626 34.3667 0.166626 33.3334V23.2584C0.166626 22.225 1.00829 21.3834 2.04163 21.3834H7.39996C8.43329 21.3834 9.27496 22.225 9.27496 23.2584V33.3334C9.27496 34.3667 8.43329 35.2084 7.39996 35.2084ZM2.24996 33.125H7.19163V23.4667H2.24996V33.125Z" fill="#333333"/>
</g>
<g id="Group_19">
<path id="Vector_16" d="M81.4499 33.3334C81.4499 33.7917 81.0749 34.1667 80.6166 34.1667H75.2583C74.7999 34.1667 74.4249 33.7917 74.4249 33.3334V23.2584C74.4249 22.8 74.7999 22.425 75.2583 22.425H80.6166C81.0749 22.425 81.4499 22.8 81.4499 23.2584V33.3334Z" fill="#F7D959"/>
<path id="Vector_17" d="M80.6166 35.2084H75.2583C74.225 35.2084 73.3833 34.3667 73.3833 33.3334V23.2584C73.3833 22.225 74.225 21.3834 75.2583 21.3834H80.6166C81.65 21.3834 82.4916 22.225 82.4916 23.2584V33.3334C82.4916 34.3667 81.65 35.2084 80.6166 35.2084ZM75.4666 33.125H80.4083V23.4667H75.4666V33.125Z" fill="#333333"/>
</g>
</g>
<g id="Group_20">
<path id="Vector_18" d="M12.5 29.3333H8.23332C7.65832 29.3333 7.19165 28.8667 7.19165 28.2917C7.19165 27.7167 7.65832 27.25 8.23332 27.25H12.5C13.075 27.25 13.5416 27.7167 13.5416 28.2917C13.5416 28.8667 13.075 29.3333 12.5 29.3333Z" fill="#333333"/>
</g>
<g id="Group_21">
<path id="Vector_19" d="M74.425 29.3333H70.55C69.975 29.3333 69.5083 28.8667 69.5083 28.2917C69.5083 27.7167 69.975 27.25 70.55 27.25H74.425C75 27.25 75.4666 27.7167 75.4666 28.2917C75.4666 28.8667 75 29.3333 74.425 29.3333Z" fill="#333333"/>
</g>
</g>
</g>
<defs>
<clipPath id="clip0_93_1346">
<rect width="82.325" height="75.9917" fill="white" transform="translate(0.166626 0.666687)"/>
</clipPath>
</defs>
</svg>
