<svg width="200" height="140" viewBox="0 0 200 140" fill="none" xmlns="http://www.w3.org/2000/svg">
<g id="Frame" clip-path="url(#clip0_93_993)">
<g id="Group">
<g id="Group_2">
<g id="Group_3">
<path id="Vector" d="M140.735 76.579V53.4212L100.951 23.0093C100.431 22.6098 99.5635 22.6098 99.0432 23.0093L59.2594 53.4212V76.579H34.3728V141.675H165.621V76.579H140.735Z" fill="white"/>
</g>
<g id="Group_4">
<path id="Vector_2" d="M100.951 34.0093L139.5 64.0225V49.3463L99.9971 21.8689L60.9998 49.6875V64.3463L99.0432 33.992C99.5635 33.6099 100.413 33.6099 100.951 34.0093Z" fill="#E6E6E6"/>
</g>
</g>
<g id="Group_5">
<path id="Vector_3" d="M115.554 119.687H84.4234V141.659H115.554V119.687Z" fill="#43AEE8"/>
</g>
<g id="Group_6">
<g id="Group_7">
<path id="Vector_4" d="M157.124 49.2761C157.592 48.8071 157.54 48.095 157.02 47.6956L100.968 5.2996C100.448 4.90013 99.5809 4.90013 99.0433 5.2996L42.9747 47.6956C42.4545 48.095 42.4024 48.8071 42.8707 49.2761L51.3859 57.8039C51.8541 58.2728 52.6692 58.3249 53.1895 57.9255L99.0433 22.8589C99.5636 22.4595 100.431 22.4595 100.951 22.8589L146.805 57.9081C147.325 58.3076 148.14 58.2555 148.608 57.7865L157.124 49.2761Z" fill="#FF725D" stroke="#333333" stroke-width="3"/>
</g>
</g>
<g id="Group_8">
<g id="Group_9">
<path id="Vector_5" d="M115.45 61.6601C115.45 70.2055 108.53 77.1357 99.9975 77.1357C91.4647 77.1357 84.5448 70.2055 84.5448 61.6601C84.5448 53.1146 91.4647 46.1844 99.9975 46.1844C108.53 46.1844 115.45 53.1146 115.45 61.6601Z" fill="#CCCCCC"/>
</g>
<g id="Group_10">
<path id="Vector_6" d="M99.9972 63.8311H94.8984C93.7017 63.8311 92.7305 62.8584 92.7305 61.66C92.7305 60.4615 93.7017 59.4889 94.8984 59.4889H97.8293V53.2708C97.8293 52.0724 98.8006 51.0997 99.9972 51.0997C101.194 51.0997 102.165 52.0724 102.165 53.2708V61.66C102.165 62.8584 101.194 63.8311 99.9972 63.8311Z" fill="#333333"/>
</g>
</g>
<g id="Group_11">
<g id="Group_12">
<path id="Vector_7" d="M63.4564 90.0394H57.1609V96.3617H63.4564V90.0394Z" fill="#43AEE8"/>
</g>
<g id="Group_13">
<path id="Vector_8" d="M76.6888 90.0394H70.3933V96.3617H76.6888V90.0394Z" fill="#43AEE8"/>
</g>
<g id="Group_14">
<path id="Vector_9" d="M89.9212 90.0394H83.6257V96.3617H89.9212V90.0394Z" fill="#43AEE8"/>
</g>
<g id="Group_15">
<path id="Vector_10" d="M103.136 90.0394H96.8407V96.3617H103.136V90.0394Z" fill="#43AEE8"/>
</g>
<g id="Group_16">
<path id="Vector_11" d="M116.369 90.0394H110.073V96.3617H116.369V90.0394Z" fill="#43AEE8"/>
</g>
<g id="Group_17">
<path id="Vector_12" d="M129.584 90.0394H123.288V96.3617H129.584V90.0394Z" fill="#43AEE8"/>
</g>
<g id="Group_18">
<g id="Group_19">
<path id="Vector_13" d="M142.833 90.0394H136.521V96.3617H142.833V90.0394Z" fill="#43AEE8"/>
</g>
</g>
<g id="Group_20">
<path id="Vector_14" d="M63.4564 102.527H57.1609V108.832H63.4564V102.527Z" fill="#43AEE8"/>
</g>
<g id="Group_21">
<path id="Vector_15" d="M76.6888 102.527H70.3933V108.832H76.6888V102.527Z" fill="#43AEE8"/>
</g>
<g id="Group_22">
<path id="Vector_16" d="M89.9212 102.527H83.6257V108.832H89.9212V102.527Z" fill="#43AEE8"/>
</g>
<g id="Group_23">
<path id="Vector_17" d="M103.136 102.527H96.8407V108.832H103.136V102.527Z" fill="#43AEE8"/>
</g>
<g id="Group_24">
<path id="Vector_18" d="M116.369 102.527H110.073V108.832H116.369V102.527Z" fill="#43AEE8"/>
</g>
<g id="Group_25">
<path id="Vector_19" d="M129.584 102.527H123.288V108.832H129.584V102.527Z" fill="#43AEE8"/>
</g>
<g id="Group_26">
<g id="Group_27">
<path id="Vector_20" d="M142.833 102.527H136.521V108.832H142.833V102.527Z" fill="#43AEE8"/>
</g>
</g>
</g>
<g id="Group_28">
<g id="Group_29">
<g id="Group_30">
<path id="Vector_21" d="M27.9616 109.839C27.9616 118.923 22.8282 126.304 16.4808 126.304C10.1334 126.304 5 118.94 5 109.839C5 100.738 10.1334 93.374 16.4808 93.374C22.8108 93.374 27.9616 100.738 27.9616 109.839Z" fill="#87B570" stroke="#333333" stroke-width="3"/>
</g>
<g id="Group_31">
<path id="Vector_22" d="M16.4999 143.668C15.6719 143.668 14.9999 142.7 14.9999 141.508V109.828C14.9999 108.636 15.6719 107.668 16.4999 107.668C17.3279 107.668 17.9999 108.636 17.9999 109.828V141.508C17.9999 142.7 17.3399 143.668 16.4999 143.668Z" fill="#333333"/>
</g>
</g>
<g id="Group_32">
<g id="Group_33">
<path id="Vector_23" d="M194.962 109.839C194.962 118.923 189.828 126.304 183.481 126.304C177.133 126.304 172 118.94 172 109.839C172 100.738 177.133 93.374 183.481 93.374C189.811 93.374 194.962 100.738 194.962 109.839Z" fill="#87B570" stroke="#333333" stroke-width="3"/>
</g>
<g id="Group_34">
<path id="Vector_24" d="M183.5 143.668C182.672 143.668 182 142.7 182 141.508V109.828C182 108.636 182.672 107.668 183.5 107.668C184.328 107.668 185 108.636 185 109.828V141.508C185 142.7 184.34 143.668 183.5 143.668Z" fill="#333333"/>
</g>
</g>
</g>
<path id="Vector_25" d="M140.735 76.579V53.4212L100.951 23.0093C100.431 22.6098 99.5635 22.6098 99.0433 23.0093L59.2594 53.4212V76.579H34.3728V141.675H165.621V76.579H140.735Z" stroke="#333333" stroke-width="3" stroke-linejoin="round"/>
</g>
</g>
<defs>
<clipPath id="clip0_93_993">
<rect width="200" height="140" fill="white"/>
</clipPath>
</defs>
</svg>
